<?xml version="1.0" encoding="UTF-8" standalone="no"?>
<svg
   version="1.1"
   id="svg5"
   xml:space="preserve"
   inkscape:version="1.3.2 (091e20e, 2023-11-25, custom)"
   sodipodi:docname="openesm_icon_embedded.svg"
   inkscape:export-filename="openesm_icon.svg"
   inkscape:export-xdpi="96"
   inkscape:export-ydpi="96"
   viewBox="18.37 18.37 93.26 107.07"
   xmlns:inkscape="http://www.inkscape.org/namespaces/inkscape"
   xmlns:sodipodi="http://sodipodi.sourceforge.net/DTD/sodipodi-0.dtd"
   xmlns="http://www.w3.org/2000/svg"
   xmlns:svg="http://www.w3.org/2000/svg"><sodipodi:namedview
     id="namedview7"
     pagecolor="#ffffff"
     bordercolor="#000000"
     borderopacity="0.25"
     inkscape:showpageshadow="2"
     inkscape:pageopacity="0.0"
     inkscape:pagecheckerboard="0"
     inkscape:deskcolor="#d1d1d1"
     inkscape:document-units="mm"
     showgrid="false"
     inkscape:zoom="8"
     inkscape:cx="42.875"
     inkscape:cy="127.1875"
     inkscape:window-width="1200"
     inkscape:window-height="1849"
     inkscape:window-x="-8"
     inkscape:window-y="568"
     inkscape:window-maximized="1"
     inkscape:current-layer="layer1" /><defs
     id="defs2"><linearGradient
   id="swatch21"
   inkscape:swatch="solid"><stop
     style="stop-color:#fdfdfd;stop-opacity:1;"
     offset="0"
     id="stop21" /></linearGradient><marker
   style="overflow:visible"
   id="marker6003"
   refX="0"
   refY="0"
   orient="auto"
   inkscape:stockid="Dot"
   markerWidth="3"
   markerHeight="3"
   viewBox="0 0 5.6666667 5.6666667"
   inkscape:isstock="true"
   inkscape:collect="always"
   preserveAspectRatio="xMidYMid"><path
     transform="scale(0.5)"
     style="fill:context-stroke;fill-rule:evenodd;stroke:context-stroke;stroke-width:1pt"
     d="M 5,0 C 5,2.76 2.76,5 0,5 -2.76,5 -5,2.76 -5,0 c 0,-2.76 2.3,-5 5,-5 2.76,0 5,2.24 5,5 z"
     id="path6001"
     sodipodi:nodetypes="sssss" /></marker><marker
   style="overflow:visible"
   id="marker5909"
   refX="0"
   refY="0"
   orient="auto"
   inkscape:stockid="Dot"
   markerWidth="3"
   markerHeight="3"
   viewBox="0 0 5.6666667 5.6666667"
   inkscape:isstock="true"
   inkscape:collect="always"
   preserveAspectRatio="xMidYMid"><path
     transform="scale(0.5)"
     style="fill:context-stroke;fill-rule:evenodd;stroke:context-stroke;stroke-width:1pt"
     d="M 5,0 C 5,2.76 2.76,5 0,5 -2.76,5 -5,2.76 -5,0 c 0,-2.76 2.3,-5 5,-5 2.76,0 5,2.24 5,5 z"
     id="path5907"
     sodipodi:nodetypes="sssss" /></marker><marker
   style="overflow:visible"
   id="Dot"
   refX="0"
   refY="0"
   orient="auto"
   inkscape:stockid="Dot"
   markerWidth="3"
   markerHeight="3"
   viewBox="0 0 5.6666667 5.6666667"
   inkscape:isstock="true"
   inkscape:collect="always"
   preserveAspectRatio="xMidYMid"><path
     transform="scale(0.5)"
     style="fill:context-stroke;fill-rule:evenodd;stroke:context-stroke;stroke-width:1pt"
     d="M 5,0 C 5,2.76 2.76,5 0,5 -2.76,5 -5,2.76 -5,0 c 0,-2.76 2.3,-5 5,-5 2.76,0 5,2.24 5,5 z"
     id="Dot1"
     sodipodi:nodetypes="sssss" /></marker>
		
		
		
		
		
	
			
			
		<marker
   style="overflow:visible"
   id="marker6003-7"
   refX="0"
   refY="0"
   orient="auto"
   inkscape:stockid="Dot"
   markerWidth="2"
   markerHeight="2"
   viewBox="0 0 5.6666667 5.6666667"
   inkscape:isstock="true"
   inkscape:collect="always"
   preserveAspectRatio="xMidYMid"><path
     transform="scale(0.5)"
     style="fill:context-stroke;fill-rule:evenodd;stroke:context-stroke;stroke-width:1pt"
     d="M 5,0 C 5,2.76 2.76,5 0,5 -2.76,5 -5,2.76 -5,0 c 0,-2.76 2.3,-5 5,-5 2.76,0 5,2.24 5,5 z"
     id="path6001-2"
     sodipodi:nodetypes="sssss" /></marker><marker
   style="overflow:visible"
   id="marker5909-5"
   refX="0"
   refY="0"
   orient="auto"
   inkscape:stockid="Dot"
   markerWidth="2"
   markerHeight="2"
   viewBox="0 0 5.6666667 5.6666667"
   inkscape:isstock="true"
   inkscape:collect="always"
   preserveAspectRatio="xMidYMid"><path
     transform="scale(0.5)"
     style="fill:context-stroke;fill-rule:evenodd;stroke:context-stroke;stroke-width:1pt"
     d="M 5,0 C 5,2.76 2.76,5 0,5 -2.76,5 -5,2.76 -5,0 c 0,-2.76 2.3,-5 5,-5 2.76,0 5,2.24 5,5 z"
     id="path5907-5"
     sodipodi:nodetypes="sssss" /></marker><marker
   style="overflow:visible"
   id="Dot-3"
   refX="0"
   refY="0"
   orient="auto"
   inkscape:stockid="Dot"
   markerWidth="2"
   markerHeight="2"
   viewBox="0 0 5.6666667 5.6666667"
   inkscape:isstock="true"
   inkscape:collect="always"
   preserveAspectRatio="xMidYMid"><path
     transform="scale(0.5)"
     style="fill:context-stroke;fill-rule:evenodd;stroke:context-stroke;stroke-width:1pt"
     d="M 5,0 C 5,2.76 2.76,5 0,5 -2.76,5 -5,2.76 -5,0 c 0,-2.76 2.3,-5 5,-5 2.76,0 5,2.24 5,5 z"
     id="Dot1-9"
     sodipodi:nodetypes="sssss" /></marker></defs><g
     inkscape:groupmode="layer"
     id="layer2"
     inkscape:label="Layer 2" /><g
     inkscape:label="Layer 1"
     inkscape:groupmode="layer"
     id="layer1"><path
       sodipodi:type="star"
       style="fill:#ffffff;fill-opacity:1;stroke:#000000;stroke-width:2.22262;stroke-linecap:round;stroke-linejoin:round;stroke-dasharray:none;stroke-opacity:1;paint-order:markers stroke fill"
       id="path1520-0"
       inkscape:flatsided="true"
       sodipodi:sides="6"
       sodipodi:cx="53.865391"
       sodipodi:cy="24.532751"
       sodipodi:r1="52.603107"
       sodipodi:r2="45.555626"
       sodipodi:arg1="0.56128604"
       sodipodi:arg2="1.0848848"
       inkscape:rounded="3.469447e-18"
       inkscape:randomized="0"
       d="M 98.397671,52.532089 51.883393,77.098506 7.3511126,49.099168 9.3331106,-3.466587 55.847389,-28.033004 100.37967,-0.03366583 Z"
       transform="matrix(0.96331621,-0.03669367,0.03678693,0.96575957,12.333111,50.196404)" /><path
       d="m 36.502692,96.903533 q -0.0498,0.439859 -0.0498,0.946111 0,0.506253 0.0498,0.912914 0.04979,0.406662 0.174284,0.813324 0.132787,0.406662 0.331968,0.705438 0.448158,0.66393 1.261482,0.66393 1.80093,0 1.80093,-3.029212 0,-1.776033 -0.53115,-2.464868 -0.431559,-0.564347 -1.26978,-0.564347 -1.535356,0 -1.767734,2.01671 z m -1.825828,1.004206 q 0,-2.074805 0.95441,-3.29479 0.962709,-1.228284 2.639152,-1.228284 1.112095,0 1.925418,0.564347 1.651545,1.153591 1.651545,3.967026 0,3.510572 -2.190994,4.307292 -0.605843,0.22408 -1.385969,0.22408 -0.771828,0 -1.38597,-0.22408 -0.614142,-0.22408 -1.020804,-0.62244 -0.406661,-0.39836 -0.680536,-0.97931 -0.506252,-1.078895 -0.506252,-2.713841 z m 10.415519,2.174391 q 0.821623,0.85482 1.792632,0.85482 1.012504,0 1.452363,-0.87141 0.390063,-0.763532 0.390063,-2.290589 0,-1.684741 -0.547748,-2.33208 -0.464757,-0.556048 -1.377671,-0.556048 -0.95441,0 -1.59345,0.85482 -0.107889,0.149386 -0.116189,0.157685 z m 0,-5.892441 q 0.630741,-0.805024 1.842427,-0.805024 2.091403,0 3.037514,1.933718 0.53115,1.078898 0.53115,2.431671 0,3.162006 -1.560253,4.157906 -0.829922,0.53115 -2.1246,0.53115 -0.630741,0 -1.103796,-0.24897 -0.473056,-0.25728 -0.622442,-0.48136 v 3.98363 H 43.316351 V 93.534051 h 1.776032 z m 8.133234,2.688947 h 3.070711 q 0,-0.647339 -0.224079,-1.120395 -0.43156,-0.871418 -1.195088,-0.871418 -0.456457,0 -0.805024,0.207481 -0.340268,0.199181 -0.514552,0.522851 -0.331968,0.605843 -0.331968,1.261481 z m -1.394269,3.718054 q -0.257276,-0.57265 -0.365166,-1.170194 -0.09959,-0.605843 -0.09959,-1.518757 0,-0.921213 0.215779,-1.784332 0.21578,-0.863119 0.556048,-1.369371 0.340268,-0.514552 0.821623,-0.829922 0.821622,-0.539449 1.933718,-0.539449 1.045701,0 1.825828,0.622441 1.460662,1.178489 1.394268,4.373688 h -4.971231 q 0,1.676446 0.888016,2.257386 0.456457,0.29877 0.95441,0.29877 0.506252,0 0.838221,-0.12448 0.331969,-0.12449 0.53115,-0.28218 0.199181,-0.15768 0.365166,-0.36516 0.224079,-0.290476 0.307071,-0.497957 l 1.128693,0.730327 q -0.614142,1.0706 -1.311276,1.52706 -0.771827,0.51455 -1.70134,0.51455 -0.921213,0 -1.576851,-0.24068 -0.647339,-0.24067 -1.0623,-0.63903 -0.406662,-0.39837 -0.672237,-0.96271 z m 14.216563,-4.871646 v 6.564686 h -1.776033 v -6.099929 q 0,-0.597544 -0.365165,-0.946111 -0.356867,-0.356867 -0.85482,-0.356867 -0.497953,0 -0.987607,0.298772 -0.489654,0.290473 -0.730331,0.580946 v 6.523189 h -1.776033 v -8.755679 h 1.776033 v 0.929512 q 0.481355,-0.481354 1.004205,-0.780126 0.53115,-0.298772 1.236584,-0.298772 1.078898,0 1.776033,0.589244 0.697134,0.580946 0.697134,1.751135 z m 1.817528,6.564686 V 89.71641 h 7.195422 v 1.668143 h -5.211909 v 3.477373 h 3.626759 v 1.676442 h -3.626759 v 3.967022 h 5.52728 v 1.78434 z m 8.008745,-3.220101 1.59345,-0.52285 q 0.0083,0 0.0332,0.124488 0.0249,0.124488 0.08299,0.331969 0.06639,0.199181 0.174284,0.448158 0.116189,0.240677 0.331969,0.489653 0.215779,0.240673 0.506252,0.439863 0.647339,0.45645 1.610048,0.45645 0.96271,0 1.410867,-0.47305 0.456458,-0.473058 0.456458,-1.120397 0,-0.655638 -0.132788,-1.054001 -0.132787,-0.406661 -0.464756,-0.705433 -0.556048,-0.497953 -1.925419,-0.896316 -2.415072,-0.705433 -3.103908,-2.182694 -0.356866,-0.771828 -0.356866,-1.817529 0,-0.879717 0.622441,-1.717938 1.087198,-1.38597 3.08731,-1.38597 1.58515,0 2.597655,0.95441 0.722032,0.672237 1.078898,1.693041 l 0.157686,0.439858 q 0.07469,0.199182 0.09959,0.257276 l -1.618347,0.572646 q -0.547749,-1.742836 -1.709639,-2.149497 -0.290473,-0.09959 -0.605843,-0.09959 -1.726238,0 -1.726238,1.776033 0,0.813323 0.481355,1.244883 0.398362,0.373464 1.045701,0.589244 l 0.398363,0.132788 q 0.340268,0.116189 0.373465,0.124488 l 0.365165,0.124488 q 1.419167,0.497953 1.91712,0.879717 0.730331,0.564347 0.95441,1.037403 0.448158,0.971008 0.448158,2.049907 0,0.84652 -0.481355,1.717934 -0.647339,1.17019 -2.049907,1.53536 -0.539449,0.14109 -1.178489,0.14109 -0.63904,0 -1.203387,-0.11619 -0.556047,-0.11619 -0.962709,-0.31537 -0.406662,-0.19918 -0.74693,-0.45646 -0.340268,-0.25728 -0.572646,-0.53945 -0.232378,-0.29047 -0.406661,-0.57265 -0.174284,-0.29047 -0.282174,-0.547744 -0.09959,-0.257276 -0.165984,-0.456457 -0.06639,-0.199181 -0.09959,-0.31537 -0.0249,-0.11619 -0.0332,-0.11619 z m 11.345034,-5.294901 v 8.515002 H 85.277201 V 89.71641 h 2.688946 l 2.415073,8.689282 h 0.08299 l 2.415073,-8.689282 h 2.688947 v 12.57332 h -1.950317 v -8.515002 h -0.07469 l -2.356978,8.515002 H 89.659188 L 87.30221,93.774728 Z"
       id="text6845"
       style="font-weight:bold;font-size:16.9968px;font-family:'News Cycle';-inkscape-font-specification:'News Cycle, Bold';stroke:#000000;stroke-width:0;stroke-linecap:round;stroke-linejoin:round;paint-order:markers stroke fill"
       transform="scale(0.98757112,1.0125853)"
       aria-label="openESM" /><g
       id="g16708"><g
         id="g4165"
         transform="matrix(1.0769986,0,0,1.0744601,-4.3193624,-6.7070891)"><g
           id="g2406"
           transform="matrix(1.2619268,0,0,1.1331788,-140.63454,-15.898936)"><path
             style="fill:#264ad9;fill-opacity:1;stroke-width:0.0849931"
             d="m 138.3068,87.26835 c 0,3.083381 6.41112,5.582945 14.31965,5.582945 7.90853,0 14.31973,-2.499564 14.31973,-5.582945 V 76.930803 h -28.63929 v 10.337632 h -9e-5 z"
             id="path321" /><path
             style="fill:#0f43b3;fill-opacity:1;stroke-width:0.0849931"
             d="m 138.3068,76.930803 c 0,3.083381 6.41112,5.582945 14.31965,5.582945 7.90853,0 14.31973,-2.499564 14.31973,-5.582945 V 66.593086 h -28.63929 v 10.337717 z"
             id="path323" /><path
             style="fill:#264ad9;fill-opacity:1;stroke-width:0.0849931"
             d="m 138.3068,66.593086 c 0,3.083381 6.41112,5.582945 14.31965,5.582945 7.90853,0 14.31973,-2.499479 14.31973,-5.582945 V 56.255539 h -28.63929 v 10.337632 h -9e-5 z"
             id="path325" /><ellipse
             style="fill:#2672d5;fill-opacity:1;stroke-width:0.0849931"
             cx="-152.62619"
             cy="56.255367"
             rx="14.319901"
             ry="5.5827746"
             id="ellipse327"
             transform="scale(-1,1)" /><circle
             cx="-145.61026"
             cy="65.843277"
             r="1.2222865"
             id="circle331"
             transform="scale(-1,1)"
             style="fill:#000080;stroke-width:0.0849931" /><circle
             cx="-141.36792"
             cy="64.563538"
             r="1.2222865"
             id="circle333"
             transform="scale(-1,1)"
             style="fill:#000080;stroke-width:0.0849931" /><circle
             cx="-145.61026"
             cy="76.271255"
             r="1.2222865"
             id="circle337"
             transform="scale(-1,1)"
             style="fill:#000080;stroke-width:0.0849931" /><circle
             cx="-141.36792"
             cy="74.991516"
             r="1.2222865"
             id="circle339"
             transform="scale(-1,1)"
             style="fill:#000080;stroke-width:0.0849931" /><circle
             cx="-145.61026"
             cy="86.520073"
             r="1.2222865"
             id="circle343"
             transform="scale(-1,1)"
             style="fill:#000080;stroke-width:0.0849931" /><circle
             cx="-141.36792"
             cy="85.24118"
             r="1.2222865"
             id="circle345"
             transform="scale(-1,1)"
             style="fill:#000080;stroke-width:0.0849931" /><path
             d="m 137.63791,56.255539 c 0,-6.8e-4 8e-5,-0.0014 8e-5,-0.002 0.001,-1.785281 1.64181,-3.4078 4.61997,-4.568891 2.7803,-1.084003 6.46254,-1.680995 10.36857,-1.680995 3.90603,0 7.58828,0.596992 10.36849,1.68091 2.97926,1.161601 4.62006,2.784885 4.62006,4.570931 V 66.593256 76.930803 87.26852 c 0,1.786046 -1.6408,3.40933 -4.62006,4.570931 -2.78013,1.083918 -6.46246,1.68091 -10.36849,1.68091 -3.90603,0 -7.58827,-0.596992 -10.36857,-1.68091 -2.97926,-1.161601 -4.62005,-2.784885 -4.62005,-4.570931 v -10.337547 -8.5e-5 -8.5e-5 -10.337462 -8.5e-5 -8.5e-5 z m 1.33779,12.995793 v 7.679471 c 0,0.145423 0.0214,0.289911 0.0603,0.42998 0.001,0.0043 0.002,0.0088 0.003,0.01317 0.18562,0.652153 0.70187,1.158967 1.22585,1.559114 0.62249,0.475282 1.45738,0.924216 2.47883,1.322409 1.86968,0.728986 4.18506,1.224666 6.71293,1.450323 0.0687,0.0061 0.1376,0.01207 0.20662,0.01776 0.96229,0.07998 1.95399,0.12137 2.96294,0.12137 3.74378,0 7.25349,-0.564525 9.8825,-1.589457 2.39476,-0.93365 3.76817,-2.145482 3.76817,-3.324592 v -7.679386 c -0.001,0.0011 -0.002,0.0021 -0.004,0.0032 -0.013,0.01207 -0.0268,0.0238 -0.04,0.03578 -0.92753,0.841602 -2.07953,1.42185 -3.23883,1.873674 -2.78013,1.083917 -6.46246,1.680909 -10.36849,1.680909 -0.52134,0 -1.03861,-0.01096 -1.55036,-0.03204 -0.56656,-0.02329 -1.12641,-0.0589 -1.67708,-0.107177 -0.0146,-0.0013 -0.0292,-0.0028 -0.0438,-0.004 -1.67335,-0.148993 -3.26195,-0.412472 -4.70514,-0.779982 -1.7444,-0.444175 -3.51617,-1.063435 -4.99241,-2.118115 -0.23722,-0.169476 -0.46449,-0.352721 -0.67918,-0.54982 -7.7e-4,-9.35e-4 -0.002,-0.0018 -0.003,-0.0026 z m 27.30158,-10.337547 c -10e-4,0.001 -0.002,0.0019 -0.003,0.0029 -0.93637,0.867185 -2.09907,1.449728 -3.27912,1.909796 -2.78012,1.083917 -6.46245,1.680909 -10.36848,1.680909 -1.34272,0 -2.65893,-0.07054 -3.92125,-0.207128 -2.40981,-0.260844 -4.62269,-0.762389 -6.44732,-1.473696 -1.15837,-0.451654 -2.31683,-1.035727 -3.24351,-1.878009 -0.0115,-0.01045 -0.0235,-0.02074 -0.0349,-0.03119 -0.001,-0.0012 -0.003,-0.0023 -0.004,-0.0035 v 7.679471 c 0,0.227867 0.0535,0.455563 0.14254,0.664646 0.22693,0.533842 0.64782,0.949544 1.09853,1.300821 3.39242,2.644136 8.27043,2.948582 12.40977,2.948582 0.57863,0 1.15735,-0.01334 1.7353,-0.04097 3.08381,-0.146698 5.92896,-0.68377 8.14719,-1.54866 2.39477,-0.93365 3.76817,-2.145482 3.76817,-3.324507 v -7.679471 z m -3.76825,-5.982838 c -2.62901,-1.025017 -6.13872,-1.589542 -9.8825,-1.589542 -3.74377,0 -7.25348,0.564525 -9.88249,1.589457 -2.39477,0.93365 -3.76817,2.145482 -3.76817,3.324592 0,1.17911 1.37349,2.390942 3.76817,3.324592 1.64317,0.640679 3.63031,1.101426 5.80359,1.356831 1.30405,0.153327 2.67499,0.232711 4.0789,0.232711 3.74378,0 7.25349,-0.564524 9.8825,-1.589457 2.39476,-0.93365 3.76825,-2.145482 3.76825,-3.324592 0,-1.17911 -1.37349,-2.391027 -3.76825,-3.324592 z M 138.9757,87.26835 c 0,1.179195 1.37349,2.390857 3.76817,3.324507 2.62909,1.025017 6.13872,1.589542 9.88258,1.589542 3.74386,0 7.2534,-0.564525 9.88249,-1.589542 2.39477,-0.93365 3.76817,-2.145482 3.76817,-3.324507 v -7.679386 c -0.001,10e-4 -0.002,0.0019 -0.003,0.0029 -0.0145,0.01343 -0.03,0.02677 -0.0448,0.04012 -0.93067,0.843642 -2.07205,1.416581 -3.23433,1.869679 -2.78012,1.083918 -6.46245,1.68091 -10.36848,1.68091 -0.50486,0 -1.00581,-0.0102 -1.50166,-0.02992 -3.34091,-0.132759 -6.4458,-0.707143 -8.86674,-1.650907 -0.89328,-0.348217 -1.76208,-0.772587 -2.54852,-1.323938 -0.23934,-0.167861 -0.46882,-0.349407 -0.68556,-0.545571 -0.0149,-0.01343 -0.0305,-0.02686 -0.0451,-0.04037 -10e-4,-10e-4 -0.002,-0.0019 -0.003,-0.0029 v 7.679471 h 2.6e-4 z"
             id="path347"
             style="fill:#ffffff;stroke-width:0.0849931" /></g></g><g
         id="g16626"
         transform="matrix(1.0231037,0,0,0.9936538,-1.150748,0.54295384)"><path
           style="fill:none;stroke:#ffffff;stroke-width:3.5;stroke-linecap:round;stroke-linejoin:round;stroke-dasharray:none;stroke-opacity:1;marker-mid:url(#marker6003-7);paint-order:stroke fill markers"
           d="M 50.75,79.678607 64.72935,65.048743 80.11947,59.149605 94.48358,42.75"
           id="path11392-2-9"
           sodipodi:nodetypes="cccc" /><path
           style="fill:none;stroke:#ffffff;stroke-width:3.5;stroke-linecap:round;stroke-linejoin:round;stroke-dasharray:none;stroke-opacity:1;marker-mid:url(#marker5909-5)"
           d="M 50.75,83.382567 64.72936,71.872346 80.11948,65.743141 94.483584,55.75"
           id="path11392-4"
           sodipodi:nodetypes="cccc" /><path
           style="fill:none;stroke:#ffffff;stroke-width:3.5;stroke-linecap:round;stroke-linejoin:round;stroke-dasharray:none;stroke-dashoffset:0;stroke-opacity:1;marker-mid:url(#Dot-3)"
           d="M 50.75,86.727731 64.72936,77.348584 80.11947,74.870946 94.48358,68.75"
           id="path11392-27-7"
           sodipodi:nodetypes="cccc" /><rect
           style="fill:#ffffff;fill-rule:evenodd;stroke-width:0.197736"
           id="rect11592"
           width="3.6845121"
           height="8.6586046"
           x="56.188812"
           y="71.847992" /><rect
           style="fill:#ffffff;fill-rule:evenodd;stroke-width:0.299192"
           id="rect11598"
           width="7.291307"
           height="12.29106"
           x="64.386856"
           y="63.702003" /><rect
           style="fill:#ffffff;fill-rule:evenodd;stroke-width:0.264583"
           id="rect11604"
           width="3.5923996"
           height="8.7507172"
           x="58.767971"
           y="70.466293" /><path
           style="fill:none;stroke:#4a90e2;stroke-width:1.5;stroke-linecap:round;stroke-linejoin:round;stroke-dasharray:none;stroke-opacity:1;marker-mid:url(#marker5909)"
           d="M 50.75,83.382567 64.729355,71.872346 80.119472,65.743141 94.48358,55.75"
           id="path11392"
           sodipodi:nodetypes="cccc" /><path
           style="fill:none;stroke:#064fa2;stroke-width:1.5404;stroke-linecap:round;stroke-linejoin:round;stroke-dasharray:none;stroke-opacity:1;marker-mid:url(#marker6003);paint-order:stroke fill markers"
           d="M 50.770199,79.658408 65.117222,64.625272 80.912111,58.563525 95.654006,41.711866"
           id="path11392-2"
           sodipodi:nodetypes="cccc" /><path
           style="fill:none;stroke:#ff8c00;stroke-width:1.5;stroke-linecap:round;stroke-linejoin:round;stroke-dasharray:none;stroke-dashoffset:0;stroke-opacity:1;marker-mid:url(#Dot)"
           d="M 50.75,86.727731 64.729355,77.348584 80.119472,74.870946 94.48358,68.75"
           id="path11392-27"
           sodipodi:nodetypes="cccc" /></g></g></g></svg>
